<?xml version="1.0" standalone="no"?>
<!DOCTYPE svg PUBLIC "-//W3C//DTD SVG 20010904//EN"
 "http://www.w3.org/TR/2001/REC-SVG-20010904/DTD/svg10.dtd">
<svg version="1.0" xmlns="http://www.w3.org/2000/svg"
 width="227.000000pt" height="215.000000pt" viewBox="0 0 227.000000 215.000000"
 preserveAspectRatio="xMidYMid meet">

<g transform="translate(0.000000,215.000000) scale(0.100000,-0.100000)"
fill="#000000" stroke="none">
<path d="M1415 1966 c-16 -8 -79 -64 -140 -125 l-110 -111 -277 0 c-172 0
-287 -4 -305 -11 -37 -14 -310 -284 -334 -331 -24 -46 -26 -155 -4 -197 8 -16
27 -33 43 -39 21 -7 31 -20 40 -50 7 -22 23 -47 37 -56 23 -15 25 -22 25 -101
0 -79 2 -86 30 -118 26 -31 30 -42 30 -97 0 -54 3 -65 29 -90 20 -21 30 -42
34 -76 3 -31 13 -54 28 -69 30 -29 580 -215 635 -215 36 0 51 13 310 272 151
149 280 286 289 304 8 18 15 54 15 80 l0 48 153 153 152 154 3 125 c2 69 1
138 -3 152 -7 30 -343 375 -387 398 -36 19 -251 19 -293 0z m447 -224 l188
-188 0 -113 0 -114 -137 -139 -138 -139 -5 43 c-3 29 -10 43 -20 43 -12 0 -16
-24 -20 -132 l-5 -133 -265 -265 c-146 -146 -272 -267 -280 -270 -9 -3 -148
39 -310 93 l-295 99 -3 46 c-2 26 -2 47 0 47 2 0 111 -36 243 -80 132 -44 243
-80 247 -80 5 0 8 6 8 14 0 9 -87 43 -262 101 -145 48 -271 91 -280 96 -14 8
-18 23 -18 74 l0 63 267 -89 c147 -49 273 -89 280 -89 7 0 13 6 13 13 0 7
-121 53 -309 115 -196 65 -311 109 -315 118 -6 15 -9 164 -3 164 1 0 137 -45
302 -100 165 -55 306 -100 313 -100 8 0 12 6 10 13 -2 6 -157 64 -344 127
l-339 115 -3 114 -3 113 90 92 90 91 188 -62 c103 -35 191 -59 196 -54 4 4 2
12 -5 18 -19 15 -349 123 -377 123 -26 0 -173 -135 -197 -182 -8 -15 -14 -56
-14 -93 0 -64 -1 -66 -22 -60 -40 12 -50 35 -46 103 l4 63 144 145 c80 81 159
152 177 160 26 11 103 14 374 14 268 0 340 3 337 13 -3 6 -24 14 -47 17 l-42
5 109 108 109 107 114 0 113 0 188 -188z"/>
<path d="M1047 1533 c-4 -3 -7 -62 -7 -130 l0 -124 -47 -50 c-25 -27 -56 -52
-67 -54 -12 -3 -94 19 -183 49 -101 34 -165 51 -169 44 -3 -5 -2 -13 2 -18 18
-17 337 -111 358 -106 13 3 48 32 79 65 l57 60 0 135 c0 124 -4 148 -23 129z"/>
</g>
</svg>
