<?xml version="1.0" standalone="no"?>
<!DOCTYPE svg PUBLIC "-//W3C//DTD SVG 20010904//EN"
 "http://www.w3.org/TR/2001/REC-SVG-20010904/DTD/svg10.dtd">
<svg version="1.0" xmlns="http://www.w3.org/2000/svg"
 width="251.000000pt" height="256.000000pt" viewBox="0 0 251.000000 256.000000"
 preserveAspectRatio="xMidYMid meet">

<g transform="translate(0.000000,256.000000) scale(0.100000,-0.100000)"
fill="#000000" stroke="none">
<path d="M1660 2113 c-8 -3 -45 -34 -82 -69 l-66 -64 -257 0 c-210 0 -263 -3
-289 -15 -18 -9 -96 -80 -173 -158 -151 -152 -163 -172 -163 -270 0 -67 22
-105 77 -129 l46 -20 -342 -342 -341 -342 0 -91 c0 -81 3 -95 22 -117 26 -27
146 -70 193 -68 27 1 33 -4 43 -32 13 -36 29 -47 116 -76 89 -30 115 -27 170
21 26 23 48 40 49 38 2 -2 11 -16 20 -31 19 -31 109 -68 163 -68 31 0 46 10
103 65 67 64 68 65 86 45 25 -27 115 -55 151 -46 20 5 148 126 408 384 208
207 391 395 407 416 24 32 29 49 29 94 l0 56 149 150 c83 83 155 164 160 179
6 16 11 77 11 137 0 157 15 145 -347 264 -284 93 -311 101 -343 89z m305 -134
c138 -45 267 -88 288 -96 l37 -15 0 -117 0 -116 -139 -139 -140 -139 -3 49
c-2 27 -7 49 -13 49 -6 0 -12 -54 -15 -132 l-5 -133 -395 -396 -395 -395 -42
4 c-61 6 -73 20 -73 81 l0 51 157 157 c123 123 155 160 145 170 -9 9 -45 -21
-162 -137 -88 -87 -158 -165 -169 -189 -11 -23 -58 -79 -104 -125 l-85 -83
-53 17 c-77 25 -79 28 -79 108 l0 71 206 207 c136 136 202 209 194 214 -16 10
-418 -391 -427 -425 -5 -24 -112 -143 -144 -160 -19 -11 -158 32 -171 53 -13
20 -9 116 6 145 8 15 102 113 210 217 210 203 251 249 240 266 -10 16 -482
-458 -489 -492 -3 -14 -17 -37 -31 -50 -23 -22 -27 -22 -72 -10 -26 6 -63 20
-82 29 -34 17 -35 18 -38 86 l-3 70 508 508 c395 396 505 510 495 520 -9 9
-43 -20 -156 -131 l-144 -143 -54 17 c-76 25 -78 28 -78 108 l0 71 153 153
153 153 263 0 c176 0 269 4 284 11 12 7 50 38 85 71 34 33 68 57 75 55 6 -3
125 -42 262 -88z"/>
</g>
</svg>
