<?xml version="1.0" standalone="no"?>
<!DOCTYPE svg PUBLIC "-//W3C//DTD SVG 20010904//EN"
 "http://www.w3.org/TR/2001/REC-SVG-20010904/DTD/svg10.dtd">
<svg version="1.0" xmlns="http://www.w3.org/2000/svg"
 width="251.000000pt" height="253.000000pt" viewBox="0 0 251.000000 253.000000"
 preserveAspectRatio="xMidYMid meet">

<g transform="translate(0.000000,253.000000) scale(0.100000,-0.100000)"
fill="#000000" stroke="none">
<path d="M1670 2303 c-8 -3 -69 -59 -136 -124 l-121 -119 -177 0 c-134 0 -184
-3 -204 -14 -42 -23 -320 -308 -326 -336 -3 -14 -7 -52 -8 -84 l-3 -60 -175
-57 c-350 -115 -359 -119 -375 -150 -10 -18 -15 -59 -15 -117 0 -115 11 -131
118 -166 42 -14 93 -26 112 -26 20 0 103 23 185 50 82 28 151 50 152 50 2 0 3
-33 3 -73 0 -47 5 -80 14 -93 14 -19 8 -27 -96 -130 -164 -162 -168 -169 -168
-274 0 -109 9 -121 109 -155 109 -37 119 -35 200 38 38 34 78 74 89 88 11 14
58 60 105 102 l85 77 173 -60 c96 -33 190 -60 209 -60 32 0 55 21 318 283
l284 284 7 67 7 67 141 142 c78 78 148 156 157 174 19 38 23 234 5 280 -13 36
-343 368 -385 388 -23 11 -64 15 -151 14 -65 0 -125 -3 -133 -6z m437 -225
l183 -182 0 -125 0 -124 -132 -134 c-73 -73 -136 -133 -140 -133 -4 0 -8 20
-8 45 0 33 -4 45 -15 45 -13 0 -15 -21 -15 -127 l0 -127 -267 -269 c-148 -148
-275 -272 -284 -277 -12 -7 -72 9 -199 52 l-182 60 35 35 35 36 92 -31 c51
-18 97 -29 101 -26 21 13 4 24 -73 50 -46 14 -85 29 -87 31 -3 2 34 43 82 91
48 48 87 91 87 95 0 26 -59 -27 -336 -304 -350 -349 -308 -322 -424 -276 l-55
22 -3 74 -3 74 311 312 c170 171 310 316 310 322 0 15 -28 43 -43 43 -6 0
-170 -53 -364 -117 l-352 -117 -84 27 c-58 19 -86 33 -89 45 -10 37 -6 151 5
165 7 8 226 86 487 172 261 87 483 165 493 173 14 13 17 28 15 81 -4 83 -21
82 -28 -1 l-5 -61 -190 -64 c-104 -35 -195 -63 -202 -63 -9 0 -13 19 -13 62
l0 62 158 158 158 158 253 0 c198 0 252 3 249 13 -3 6 -23 13 -46 15 -23 2
-42 6 -42 10 0 11 181 187 205 200 11 6 69 12 129 12 l110 0 183 -182z m-1023
-786 c9 -14 -93 -107 -117 -107 -16 0 -21 -5 -20 -21 1 -14 -23 -45 -75 -97
-75 -74 -78 -77 -100 -61 -19 13 -22 24 -22 79 0 95 20 113 185 169 147 50
142 49 149 38z"/>
</g>
</svg>
